<?xml version="1.0" encoding="utf-8"?>
<!-- Generator: Adobe Illustrator 22.0.1, SVG Export Plug-In . SVG Version: 6.00 Build 0)  -->
<svg version="1.1" id="Layer_1" xmlns="http://www.w3.org/2000/svg" xmlns:xlink="http://www.w3.org/1999/xlink" x="0px" y="0px"
	 viewBox="0 0 16 16" style="enable-background:new 0 0 16 16;" xml:space="preserve">
<style type="text/css">
	.st0{fill:#EEEEEE;stroke:#000000;stroke-width:0.1235;}
</style>
<g id="layer1_1_" transform="translate(0,-452.36218)">
	<path id="path2987_1_" class="st0" d="M6.5,453.5h4.6l0.8,0.8v4.6L6.5,453.5z"/>
	<path id="path2989_1_" class="st0" d="M11.9,454.2v7.7l3.1-3.1v-1.5L11.9,454.2z"/>
	<path id="path2991_1_" class="st0" d="M14.9,458.9v4.6l-0.8,0.8H9.5L14.9,458.9z"/>
	<path id="path2993_1_" class="st0" d="M6.5,464.3h7.7l-3.1,3.1H9.5L6.5,464.3z"/>
	<path id="path2995_1_" class="st0" d="M9.5,467.4H4.9l-0.8-0.8V462L9.5,467.4z"/>
	<path id="path2997_1_" class="st0" d="M4.1,466.6v-7.7L1.1,462v1.5L4.1,466.6z"/>
	<path id="path2999_1_" class="st0" d="M4.9,453.5h1.5l3.1,3.1H1.8L4.9,453.5z"/>
	<path id="path3001_1_" class="st0" d="M1.1,462v-4.6l0.8-0.8h4.6L1.1,462z"/>
</g>
</svg>
